<svg xmlns="http://www.w3.org/2000/svg" width="878" height="380" viewBox="0 0 878 380" version="1.1">
    <path id="line" d="M0 5 H900" stroke="#101828" stroke-width="1" fill="none" />
    <path id="word"
        d="M 680.500 17.986 C 678.850 18.430, 676.263 19.073, 674.750 19.415 L 672 20.038 672
    185.432 L 672 350.826 682.750 353.349 C 706.244 358.866, 719.031 360.400, 741.500 360.401 C
    764.816 360.401, 774.899 358.893, 791.323 352.950 C 819.786 342.652, 840.612 319.734,
    849.891 288.500 C 858.373 259.950, 857.544 221.307, 847.831 192.500 C 842.297 176.087,
    834.076 163.006, 822.355 151.965 C 809.834 140.170, 796.288 132.979, 779.517 129.224 C
    770.381 127.179, 744.164 126.976, 734.500 128.876 C 719.706 131.783, 701.635 138.749,
    692.320 145.135 C 690.021 146.711, 687.883 148, 687.570 148 C 687.256 148, 687 118.525, 687
    82.500 C 687 9.655, 687.646 16.066, 680.500 17.986 M 14.402 55.750 C 14.711 57.263, 18.333
    78.300, 22.451 102.500 C 39.537 202.899, 60.592 287.878, 83.774 350 L 86.573 357.500 96.377
    357.500 L 106.180 357.500 117.118 331.500 C 151.419 249.958, 177.658 179.212, 191.573
    130.750 C 193.113 125.388, 194.649 121, 194.986 121 C 195.323 121, 196.611 124.487, 197.846
    128.750 C 216.618 193.489, 246.370 276.606, 273.197 339.250 L 281.226 358 290.934 358 L
    300.642 358 310.282 329.250 C 335.512 254.009, 353.524 177.468, 374.528 56.250 L 375.091 53
    366.545 53 C 361.845 53, 358 53.400, 358 53.890 C 358 55.358, 350.260 97.847, 345.411 123 C
    332.137 191.854, 314.602 264.822, 298.737 317.227 C 294.786 330.277, 291.247 340.627,
    290.871 340.227 C 290.087 339.392, 278.290 310.793, 265.203 278 C 248.642 236.502, 228.776
    178.597, 210.918 119.771 L 202.500 92.041 195.400 92.021 L 188.300 92 184.423 104.750 C
    172.211 144.920, 146.438 219.147, 128.782 265 C 119.429 289.289, 98.242 340.965, 97.129
    342.201 C 95.766 343.715, 73.956 270.013, 64.482 231.871 C 55.261 194.755, 41.737 123.805,
    34.545 74.824 C 33.146 65.296, 31.768 56.487, 31.482 55.250 C 30.992 53.132, 30.458 53,
    22.401 53 L 13.841 53 14.402 55.750 M 501.500 128.043 C 487.564 130.206, 475.015 135.377,
    464.493 143.292 C 442.261 160.017, 427.546 186.612, 422.327 219.499 C 419.962 234.408,
    420.962 265.362, 424.316 281 C 429.566 305.484, 437.078 320.344, 451.386 334.549 C 459.216
    342.324, 461.979 344.331, 471 348.800 C 489.126 357.779, 510.880 361.783, 535.500 360.671 C
    553.778 359.846, 572.695 355.644, 584.250 349.842 C 588.536 347.690, 588.554 347.607,
    586.397 339.917 L 584.793 334.202 578.568 337.115 C 569.558 341.331, 554.366 344.908,
    539.834 346.233 C 505.019 349.409, 473.716 338.770, 457.473 318.242 C 445.717 303.383,
    438.757 281.972, 437.322 256.250 L 436.694 245 519.730 245 L 602.767 245 603.370 242.750 C
    604.511 238.490, 603.997 216.969, 602.521 207.243 C 600.339 192.861, 597.553 183.793,
    591.540 171.500 C 580.663 149.266, 564.650 135.687, 542.500 129.913 C 533.315 127.519,
    511.338 126.517, 501.500 128.043 M 509.500 141.636 C 500.573 142.569, 491.046 145.315,
    483.001 149.274 C 476.128 152.657, 472.781 155.182, 465.501 162.479 C 460.551 167.440,
    455.001 174.057, 453.169 177.181 C 445.236 190.716, 438.711 210.503, 437.349 225.159 L
    436.713 232 512.356 232 L 588 232 588 225.724 C 588 217.178, 586.300 204.119, 583.951
    194.619 C 577.433 168.252, 560.300 149.314, 537.780 143.581 C 531.656 142.022, 516.068
    140.950, 509.500 141.636 M 741.500 142.134 C 724.965 144.216, 707.682 150.458, 694.344
    159.166 L 687 163.960 687 252.397 L 687 340.834 692.250 341.969 C 714.423 346.759, 751.934
    348.107, 767.873 344.686 C 787.882 340.392, 803.036 332.206, 814.989 319.234 C 828.748
    304.302, 836.541 284.175, 839.087 257 C 844.193 202.498, 822.407 158.467, 783.990 145.648 C
    771.015 141.318, 757.113 140.169, 741.500 142.134"
        stroke="none" fill="#101828" fill-rule="evenodd" />
</svg>